<svg width="251pt" height="352" viewBox="0.00 0.00 250.75 264.00" xmlns="http://www.w3.org/2000/svg"><g class="graph" transform="translate(4 260)"><title>G</title><path fill="#fff" d="M-4 4v-264h250.75V4H-4z"/><g class="node"><title>reply-bot</title><path fill="none" stroke="#ddd" d="M64.505-219.5v-36h60.99v36h-60.99z"/><text text-anchor="middle" x="95" y="-234.8" font-family="-apple-system,BlinkMacSystemFont,Segoe UI,Roboto,Oxygen,Ubuntu,Cantarell,Open Sans,sans-serif" font-size="9">reply-bot</text></g><g class="node"><title>net</title><path fill="none" stroke="#ddd" d="M0-73.5v-36h54v36H0z"/><text text-anchor="middle" x="26.998" y="-88.8" font-family="-apple-system,BlinkMacSystemFont,Segoe UI,Roboto,Oxygen,Ubuntu,Cantarell,Open Sans,sans-serif" font-size="9">net</text></g><g class="edge"><title>reply-bot-&gt;net</title><path fill="none" stroke="#000" d="M81.83-219.351C74.44-209.176 65.44-195.801 59-183c-10.315 20.505-18.794 45.143-24.426 63.531"/><path stroke="#000" d="M37.875-118.291l-6.206 8.587-.503-10.583 6.709 1.996z"/></g><g class="node"><title>msg/parse</title><path fill="none" stroke="#d30" d="M144.756-146.5v-36h64.488v36h-64.488z"/><text text-anchor="middle" x="177" y="-161.8" font-family="-apple-system,BlinkMacSystemFont,Segoe UI,Roboto,Oxygen,Ubuntu,Cantarell,Open Sans,sans-serif" font-size="9">msg/parse</text></g><g class="edge"><title>reply-bot-&gt;msg/parse</title><path fill="none" stroke="#000" d="M114.85-219.313l34.893 30.213"/><path stroke="#000" d="M152.064-191.721l5.269 9.192-9.851-3.9 4.582-5.292z"/></g><g class="node"><title>smtp</title><path fill="none" stroke="#ddd" d="M68-146.5v-36h54v36H68z"/><text text-anchor="middle" x="94.751" y="-161.8" font-family="-apple-system,BlinkMacSystemFont,Segoe UI,Roboto,Oxygen,Ubuntu,Cantarell,Open Sans,sans-serif" font-size="9">smtp</text></g><g class="edge"><title>reply-bot-&gt;smtp</title><path fill="none" stroke="#000" d="M95-219.313v26.744"/><path stroke="#000" d="M98.5-192.529l-3.5 10-3.5-10h7z"/></g><g class="node"><title>msg/classify</title><path fill="none" stroke="#d30" d="M146.505-73.5v-36h72.99v36h-72.99z"/><text text-anchor="middle" x="183" y="-88.8" font-family="-apple-system,BlinkMacSystemFont,Segoe UI,Roboto,Oxygen,Ubuntu,Cantarell,Open Sans,sans-serif" font-size="9">msg/classify</text></g><g class="edge"><title>msg/parse-&gt;msg/classify</title><path fill="none" stroke="#d30" d="M178.452-146.313l2.26 26.744"/><path fill="#d30" stroke="#d30" d="M184.206-119.788l-2.645 10.259-4.33-9.67 6.975-.589z"/></g><g class="node"><title>unicode</title><path fill="none" stroke="#ddd" d="M71.754-73.5v-36h56.492v36H71.754z"/><text text-anchor="middle" x="100" y="-88.8" font-family="-apple-system,BlinkMacSystemFont,Segoe UI,Roboto,Oxygen,Ubuntu,Cantarell,Open Sans,sans-serif" font-size="9">unicode</text></g><g class="edge"><title>msg/parse-&gt;unicode</title><path fill="none" stroke="#000" d="M158.36-146.313l-32.456 29.927"/><path stroke="#000" d="M128.192-113.735l-9.724 4.206 4.979-9.352 4.745 5.146z"/></g><g class="node"><title>fmtmsg</title><path fill="none" stroke="#d30" d="M187.25-.5v-36h55.5v36h-55.5z"/><text text-anchor="middle" x="215" y="-15.8" font-family="-apple-system,BlinkMacSystemFont,Segoe UI,Roboto,Oxygen,Ubuntu,Cantarell,Open Sans,sans-serif" font-size="9">fmtmsg</text></g><g class="edge"><title>msg/classify-&gt;fmtmsg</title><path fill="none" stroke="#d30" d="M190.746-73.313l12.449 27.62"/><path fill="#d30" stroke="#d30" d="M206.407-47.084l.918 10.555-7.3-7.678 6.382-2.877z"/></g><g class="edge"><title>fmtmsg-&gt;msg/parse</title><path fill="none" stroke="#d30" d="M222.578-36.8c7.04-18.688 15.096-49.032 5.422-73.2-4.426-11.057-12.346-21.129-20.645-29.476"/><path fill="#d30" stroke="#d30" d="M204.932-136.95l-4.889-9.4 9.683 4.299-4.794 5.101z"/></g><g class="edge"><title>smtp-&gt;net</title><path fill="none" stroke="#000" d="M78.54-146.313l-28.115 29.355"/><path stroke="#000" d="M52.754-114.33l-9.445 4.801 4.39-9.643 5.055 4.842z"/></g><g class="edge"><title>smtp-&gt;unicode</title><path fill="none" stroke="#000" d="M96.21-146.313l1.884 26.744"/><path stroke="#000" d="M101.59-119.75l-2.79 10.221-4.193-9.729 6.983-.492z"/></g></g></svg>