<svg width="227pt" height="352" viewBox="0.00 0.00 227.50 264.00" xmlns="http://www.w3.org/2000/svg"><g class="graph" transform="translate(4 260)"><title>G</title><path fill="#fff" d="M-4 4v-264h227.495V4H-4z"/><g class="node"><title>reply-bot</title><path fill="none" stroke="#ddd" d="M51.505-219.5v-36h60.99v36h-60.99z"/><text text-anchor="middle" x="82" y="-234.8" font-family="-apple-system,BlinkMacSystemFont,Segoe UI,Roboto,Oxygen,Ubuntu,Cantarell,Open Sans,sans-serif" font-size="9">reply-bot</text></g><g class="node"><title>net</title><path fill="none" stroke="#ddd" d="M0-73.5v-36h54v36H0z"/><text text-anchor="middle" x="26.998" y="-88.8" font-family="-apple-system,BlinkMacSystemFont,Segoe UI,Roboto,Oxygen,Ubuntu,Cantarell,Open Sans,sans-serif" font-size="9">net</text></g><g class="edge"><title>reply-bot-&gt;net</title><path fill="none" stroke="#000" d="M67.824-219.176C60.294-209.158 51.488-195.995 46-183c-8.563 20.275-13.404 44.789-16.053 63.187"/><path stroke="#000" d="M33.4-119.226l-4.771 9.46-2.17-10.37 6.941.91z"/></g><g class="node"><title>msg/parse</title><path fill="none" stroke="#ddd" d="M126.756-146.5v-36h64.488v36h-64.488z"/><text text-anchor="middle" x="159" y="-161.8" font-family="-apple-system,BlinkMacSystemFont,Segoe UI,Roboto,Oxygen,Ubuntu,Cantarell,Open Sans,sans-serif" font-size="9">msg/parse</text></g><g class="edge"><title>reply-bot-&gt;msg/parse</title><path fill="none" stroke="#000" d="M100.64-219.313l32.456 29.927"/><path stroke="#000" d="M135.553-191.881l4.979 9.352-9.724-4.206 4.745-5.146z"/></g><g class="node"><title>smtp</title><path fill="none" stroke="#ddd" d="M55-146.5v-36h54v36H55z"/><text text-anchor="middle" x="81.751" y="-161.8" font-family="-apple-system,BlinkMacSystemFont,Segoe UI,Roboto,Oxygen,Ubuntu,Cantarell,Open Sans,sans-serif" font-size="9">smtp</text></g><g class="edge"><title>reply-bot-&gt;smtp</title><path fill="none" stroke="#000" d="M82-219.313v26.744"/><path stroke="#000" d="M85.5-192.529l-3.5 10-3.5-10h7z"/></g><g class="node"><title>msg/classify</title><path fill="none" stroke="#ddd" d="M146.505-73.5v-36h72.99v36h-72.99z"/><text text-anchor="middle" x="183" y="-88.8" font-family="-apple-system,BlinkMacSystemFont,Segoe UI,Roboto,Oxygen,Ubuntu,Cantarell,Open Sans,sans-serif" font-size="9">msg/classify</text></g><g class="edge"><title>msg/parse-&gt;msg/classify</title><path fill="none" stroke="#000" d="M164.81-146.313l9.139 27.036"/><path stroke="#000" d="M177.357-120.123l-.113 10.594-6.518-8.352 6.631-2.242z"/></g><g class="node"><title>unicode</title><path fill="none" stroke="#ddd" d="M71.754-73.5v-36h56.492v36H71.754z"/><text text-anchor="middle" x="100" y="-88.8" font-family="-apple-system,BlinkMacSystemFont,Segoe UI,Roboto,Oxygen,Ubuntu,Cantarell,Open Sans,sans-serif" font-size="9">unicode</text></g><g class="edge"><title>msg/parse-&gt;unicode</title><path fill="none" stroke="#000" d="M144.718-146.313l-24.154 29.067"/><path stroke="#000" d="M123.234-114.983l-9.083 5.454 3.699-9.928 5.384 4.474z"/></g><g class="node"><title>fmtmsg</title><path fill="none" stroke="#ddd" d="M155.25-.5v-36h55.5v36h-55.5z"/><text text-anchor="middle" x="183" y="-15.8" font-family="-apple-system,BlinkMacSystemFont,Segoe UI,Roboto,Oxygen,Ubuntu,Cantarell,Open Sans,sans-serif" font-size="9">fmtmsg</text></g><g class="edge"><title>msg/classify-&gt;fmtmsg</title><path fill="none" stroke="#000" d="M183-73.313v26.744"/><path stroke="#000" d="M186.5-46.529l-3.5 10-3.5-10h7z"/></g><g class="edge"><title>smtp-&gt;net</title><path fill="none" stroke="#000" d="M68.686-146.313l-22.293 28.779"/><path stroke="#000" d="M49.082-115.291l-8.89 5.762 3.356-10.049 5.534 4.287z"/></g><g class="edge"><title>smtp-&gt;unicode</title><path fill="none" stroke="#000" d="M86.357-146.313l6.855 27.036"/><path stroke="#000" d="M96.618-120.082l-.935 10.553-5.85-8.833 6.785-1.72z"/></g></g></svg>