<svg width="265pt" height="337pt" viewBox="0.00 0.00 264.74 337.00" xmlns="http://www.w3.org/2000/svg"><g class="graph" transform="translate(4 333)"><title>G</title><path fill="#fff" d="M-4 4v-337h264.744V4H-4z"/><g class="node"><title>reply-bot</title><path fill="none" stroke="#ddd" d="M64.505-292.5v-36h60.99v36h-60.99z"/><text text-anchor="middle" x="95" y="-307.8" font-family="-apple-system,BlinkMacSystemFont,Segoe UI,Roboto,Oxygen,Ubuntu,Cantarell,Open Sans,sans-serif" font-size="9">reply-bot</text></g><g class="node"><title>net</title><path fill="none" stroke="#ddd" d="M0-146.5v-36h54v36H0z"/><text text-anchor="middle" x="26.998" y="-161.8" font-family="-apple-system,BlinkMacSystemFont,Segoe UI,Roboto,Oxygen,Ubuntu,Cantarell,Open Sans,sans-serif" font-size="9">net</text></g><g class="edge"><title>reply-bot-&gt;net</title><path fill="none" stroke="#000" d="M81.83-292.351C74.44-282.176 65.44-268.801 59-256c-10.315 20.505-18.794 45.143-24.426 63.531"/><path stroke="#000" d="M37.875-191.291l-6.206 8.587-.503-10.583 6.709 1.996z"/></g><g class="node"><title>msg/parse</title><path fill="none" stroke="#ddd" d="M144.756-219.5v-36h64.488v36h-64.488z"/><text text-anchor="middle" x="177" y="-234.8" font-family="-apple-system,BlinkMacSystemFont,Segoe UI,Roboto,Oxygen,Ubuntu,Cantarell,Open Sans,sans-serif" font-size="9">msg/parse</text></g><g class="edge"><title>reply-bot-&gt;msg/parse</title><path fill="none" stroke="#000" d="M114.85-292.313l34.893 30.213"/><path stroke="#000" d="M152.064-264.721l5.269 9.192-9.851-3.9 4.582-5.292z"/></g><g class="node"><title>smtp</title><path fill="none" stroke="#ddd" d="M68-219.5v-36h54v36H68z"/><text text-anchor="middle" x="94.751" y="-234.8" font-family="-apple-system,BlinkMacSystemFont,Segoe UI,Roboto,Oxygen,Ubuntu,Cantarell,Open Sans,sans-serif" font-size="9">smtp</text></g><g class="edge"><title>reply-bot-&gt;smtp</title><path fill="none" stroke="#000" d="M95-292.313v26.744"/><path stroke="#000" d="M98.5-265.529l-3.5 10-3.5-10h7z"/></g><g class="node"><title>msg/classify</title><path fill="none" stroke="#ddd" d="M146.505-146.5v-36h72.99v36h-72.99z"/><text text-anchor="middle" x="183" y="-161.8" font-family="-apple-system,BlinkMacSystemFont,Segoe UI,Roboto,Oxygen,Ubuntu,Cantarell,Open Sans,sans-serif" font-size="9">msg/classify</text></g><g class="edge"><title>msg/parse-&gt;msg/classify</title><path fill="none" stroke="#000" d="M178.452-219.313l2.26 26.744"/><path stroke="#000" d="M184.206-192.788l-2.645 10.259-4.33-9.67 6.975-.589z"/></g><g class="node"><title>msg/parse-util</title><path fill="none" stroke="#1ad18a" d="M177.256-.5v-36h79.488v36h-79.488z"/><text text-anchor="middle" x="217" y="-15.8" font-family="-apple-system,BlinkMacSystemFont,Segoe UI,Roboto,Oxygen,Ubuntu,Cantarell,Open Sans,sans-serif" font-size="9">msg/parse-util</text></g><g class="edge"><title>msg/parse-&gt;msg/parse-util</title><path fill="none" stroke="#1ad18a" d="M200.043-219.35c10.671 9.405 22.235 22.054 27.957 36.35 18.03 45.044 7.156 102.635-2.114 136.064"/><path fill="#1ad18a" stroke="#1ad18a" d="M229.14-45.592l-6.168 8.614-.55-10.58 6.718 1.966z"/></g><g class="node"><title>unicode</title><path fill="none" stroke="#ddd" d="M71.754-146.5v-36h56.492v36H71.754z"/><text text-anchor="middle" x="100" y="-161.8" font-family="-apple-system,BlinkMacSystemFont,Segoe UI,Roboto,Oxygen,Ubuntu,Cantarell,Open Sans,sans-serif" font-size="9">unicode</text></g><g class="edge"><title>msg/parse-&gt;unicode</title><path fill="none" stroke="#000" d="M158.36-219.313l-32.456 29.927"/><path stroke="#000" d="M128.192-186.735l-9.724 4.206 4.979-9.352 4.745 5.146z"/></g><g class="node"><title>fmtmsg</title><path fill="none" stroke="#ddd" d="M159.25-73.5v-36h55.5v36h-55.5z"/><text text-anchor="middle" x="187" y="-88.8" font-family="-apple-system,BlinkMacSystemFont,Segoe UI,Roboto,Oxygen,Ubuntu,Cantarell,Open Sans,sans-serif" font-size="9">fmtmsg</text></g><g class="edge"><title>msg/classify-&gt;fmtmsg</title><path fill="none" stroke="#000" d="M183.968-146.313l1.507 26.744"/><path stroke="#000" d="M188.973-119.71l-2.932 10.181-4.057-9.787 6.989-.394z"/></g><g class="edge"><title>fmtmsg-&gt;msg/parse-util</title><path fill="none" stroke="#1ad18a" d="M194.262-73.313l11.547 27.328"/><path fill="#1ad18a" stroke="#1ad18a" d="M209.137-47.103l.668 10.574-7.117-7.849 6.449-2.725z"/></g><g class="edge"><title>smtp-&gt;net</title><path fill="none" stroke="#000" d="M78.54-219.313l-28.115 29.355"/><path stroke="#000" d="M52.754-187.33l-9.445 4.801 4.39-9.643 5.055 4.842z"/></g><g class="edge"><title>smtp-&gt;unicode</title><path fill="none" stroke="#000" d="M96.21-219.313l1.884 26.744"/><path stroke="#000" d="M101.59-192.75l-2.79 10.221-4.193-9.729 6.983-.492z"/></g></g></svg>